<?xml version="1.0" encoding="utf-8"?>
<!-- Generator: Adobe Illustrator 23.1.0, SVG Export Plug-In . SVG Version: 6.00 Build 0)  -->
<svg version="1.1" id="Слой_1" xmlns="http://www.w3.org/2000/svg" xmlns:xlink="http://www.w3.org/1999/xlink" x="0px" y="0px"
	 viewBox="0 0 150 150" style="enable-background:new 0 0 150 150;" xml:space="preserve">
<g>
	<path d="M89.9,103.3c3.2-1.2,6.4-2.2,9.5-3.5c17.9-8,22.8-25.8,12.1-42.2c-1.3-2-1.6-5-1.7-7.5c-0.2-4.4,0.2-8.8,0.3-13.2
		c0.1-3.3-1.9-4.7-4.8-3.6c-4.7,1.8-9,4.4-13.6,6.4c-1.9,0.8-4,1.3-6.1,1.4c-7.1,0.2-14.3,0.2-21.4,0c-2,0-4.2-0.6-6.1-1.4
		c-4.1-1.9-8.1-4.2-12.1-6.1c-3-1.5-5,0-5.2,3c-0.4,4.7-0.3,9.4-0.5,14.1c-0.1,2,0,4.3-1,5.8c-12.6,19.1-6.4,37.8,15.2,45.1
		c1.7,0.6,3.4,1,4.8,1.5c-1.8,4-2.8,8.5-5.5,11.6c-1.5,1.8-6.1,2.8-8.5,1.9c-3.2-1.3-5.7-4.5-8.3-7.2c-3-3.1-5.4-7.2-9.9-5.7
		c2.2,4.4,4.6,8.5,6.5,12.9c2.7,6.3,7.4,9.7,14.4,9.8c1.8,0,3.5,0,5.8,0c0,3.1,0.1,6,0,8.9c-0.2,5.5-1.7,6.5-6.7,4.3
		c-22.1-10.2-36.2-27.2-40.8-51.1C-2,44.8,30.2,5.9,74.5,5c32.8-0.6,62.2,23.1,69,55.6c6.9,33.1-10.1,66.8-40.3,79.5
		c-5.2,2.2-7.2,0.9-7.3-4.9c-0.1-3.1,0-6.2,0-9.3C95.9,113.4,95.8,113.1,89.9,103.3z"/>
</g>
</svg>
