<?xml version="1.0" encoding="utf-8"?>
<!-- Generator: Adobe Illustrator 23.1.0, SVG Export Plug-In . SVG Version: 6.00 Build 0)  -->
<svg version="1.1" id="Слой_1" xmlns="http://www.w3.org/2000/svg" xmlns:xlink="http://www.w3.org/1999/xlink" x="0px" y="0px"
	 viewBox="0 0 150 150" style="enable-background:new 0 0 150 150;" xml:space="preserve">
<style type="text/css">
	.st0{fill:#FFFFFF;}
</style>
<g>
	<path class="st0" d="M89.87,103.33c3.19-1.18,6.43-2.17,9.51-3.54c17.9-8.02,22.85-25.81,12.05-42.23
		c-1.33-2.02-1.62-4.96-1.73-7.5c-0.19-4.39,0.19-8.8,0.26-13.21c0.06-3.32-1.93-4.7-4.75-3.58c-4.66,1.84-9.04,4.38-13.64,6.38
		c-1.88,0.81-4.03,1.34-6.07,1.39c-7.13,0.17-14.27,0.17-21.38-0.01c-2.04-0.05-4.2-0.59-6.06-1.43c-4.13-1.87-8.06-4.16-12.15-6.13
		c-3.01-1.45-4.96,0.05-5.24,2.96c-0.44,4.67-0.26,9.38-0.51,14.07c-0.11,1.98-0.02,4.32-1.03,5.84
		c-12.63,19.11-6.38,37.78,15.23,45.1c1.69,0.57,3.41,1.04,4.81,1.46c-1.77,3.98-2.85,8.47-5.52,11.63
		c-1.55,1.84-6.13,2.82-8.45,1.91c-3.21-1.25-5.74-4.49-8.27-7.15c-2.98-3.13-5.36-7.15-9.86-5.74c2.2,4.36,4.59,8.53,6.45,12.91
		c2.7,6.34,7.37,9.73,14.35,9.79c1.77,0.02,3.54,0,5.85,0c0,3.07,0.08,5.98-0.02,8.88c-0.18,5.48-1.72,6.53-6.66,4.25
		c-22.12-10.2-36.23-27.18-40.77-51.1C-1.97,44.78,30.19,5.86,74.46,5.01c32.79-0.62,62.23,23.1,69.01,55.59
		c6.91,33.13-10.13,66.77-40.26,79.5c-5.19,2.2-7.18,0.88-7.29-4.85c-0.06-3.11-0.01-6.21-0.01-9.31
		C95.92,113.38,95.85,113.12,89.87,103.33z"/>
</g>
</svg>
