<?xml version="1.0" encoding="utf-8"?>
<!-- Generator: Adobe Illustrator 23.1.0, SVG Export Plug-In . SVG Version: 6.00 Build 0)  -->
<svg version="1.1" id="Layer_1" xmlns="http://www.w3.org/2000/svg" xmlns:xlink="http://www.w3.org/1999/xlink" x="0px" y="0px"
	 viewBox="0 0 150 150" style="enable-background:new 0 0 150 150;" xml:space="preserve">
<style type="text/css">
	.st0{fill:#FFFFFF;}
</style>
<g>
	<g>
		<path class="st0" d="M75,5C49.3,5,28.3,25.9,28.3,51.7c0,7.7,1.9,15.4,5.6,22.2l38.5,69.7c0.5,0.9,1.5,1.5,2.6,1.5
			c1.1,0,2-0.6,2.6-1.5l38.5-69.7c3.7-6.8,5.6-14.4,5.6-22.2C121.7,25.9,100.7,5,75,5z M75,75c-12.9,0-23.3-10.5-23.3-23.3
			S62.1,28.3,75,28.3s23.3,10.5,23.3,23.3S87.9,75,75,75z"/>
	</g>
</g>
</svg>
