<?xml version="1.0" encoding="utf-8"?>
<!-- Generator: Adobe Illustrator 23.1.0, SVG Export Plug-In . SVG Version: 6.00 Build 0)  -->
<svg version="1.1" id="Слой_1" xmlns="http://www.w3.org/2000/svg" xmlns:xlink="http://www.w3.org/1999/xlink" x="0px" y="0px"
	 viewBox="0 0 150 150" style="enable-background:new 0 0 150 150;" xml:space="preserve">
<style type="text/css">
	.st0{fill:#FFFFFF;}
</style>
<g>
	<path class="st0" d="M75.1,145c-14.4,0-28.9,0-43.3,0C17,145,6.2,134.8,5.4,119.7c-0.4-8.1-0.6-16.3,0.1-24.4
		C6.6,82,17.1,71.8,30.1,71.7c29.9-0.2,59.8-0.2,89.7,0c13.4,0.1,23.9,10.4,24.8,24.2c0.5,8.1,0.5,16.3,0,24.4
		c-0.9,14.4-11.8,24.5-25.9,24.6C104.2,145,89.6,145,75.1,145z M85,127.2c3.1,3.2,6.3,4,9.6,2.6c3.5-1.5,3.6-5,3.6-8.2
		c0.1-3.9,0.1-7.8,0-11.7c-0.1-3.7,0.4-7.4-0.4-11c-0.7-3.3-2.8-5.2-5.8-5.5c-2.7-0.2-4.7,1.2-6.9,3.2c0-4,0-7.6,0-11.1
		c0-4.6,0-4.4-4.5-4.6c-2.3-0.1-2.7,0.8-2.7,2.9c0.1,13.7,0,27.5,0,41.2c0,5.2,0,5.1,5.2,5.1C84.9,130.1,85.3,129.4,85,127.2z
		 M101.9,111.7C101.9,111.7,102,111.7,101.9,111.7c0.1,3.1-0.1,6.3,0.1,9.4c0.5,6.8,4.4,10.1,11.1,9.9c6.2-0.2,9.5-3.9,9.7-10.7
		c0.1-1.9-0.6-2.5-2.3-2.3c-1.6,0.2-3.3-0.2-4.6,0.4c-0.6,0.3-0.4,2.4-0.6,3.7c-0.2,1.8-1.2,2.7-3,2.6c-1.8,0-2.8-1-2.9-2.8
		c-0.1-2.6-0.1-5.1-0.2-7.7c-0.1-1.4,0.7-1.5,1.8-1.5c3.3,0,6.7,0,10,0c1.2,0,1.9-0.2,1.8-1.7c-0.1-2.8,0.1-5.7-0.1-8.5
		c-0.2-3.4-1.3-6.6-4.5-8.3c-5.7-3.1-16-1.2-16.3,9.2C101.8,106.2,101.9,108.9,101.9,111.7z M65.8,126c-0.9,3.6,0.3,4.5,3,4
		c0.7-0.1,1.5-0.1,2.2,0c1.3,0.1,1.7-0.5,1.7-1.8c0-10.9-0.1-21.8,0-32.7c0-1.4-0.5-1.8-1.8-1.7c-0.6,0.1-1.1,0-1.7,0
		c-3.7,0-3.7,0-3.7,3.9c0,7.4,0,14.8,0,22.2c0,1.8-2.4,4.2-4.2,4.1c-2.4-0.2-1.8-2.2-1.9-3.7c0-7.2,0-14.4,0-21.6
		c0-4.9,0-4.8-4.7-4.9c-2-0.1-2.4,0.7-2.4,2.6c0.1,7.9,0,15.7,0,23.6c0,2.2-0.2,4.4,0.3,6.5c0.6,2.9,2.2,4.2,5.1,4
		C60.9,130.3,63,128.4,65.8,126z M33.2,108.9c0,5.2,0,10.4,0,15.7c0,5.5,0,5.3,5.4,5.5c2.1,0.1,2.6-0.5,2.6-2.6
		c-0.1-11.8-0.1-23.7-0.1-35.6c0-3.8,0-3.8,3.6-3.8c4.8,0,4.7,0,4.8-4.9c0-2-0.7-2.3-2.4-2.3c-6.3,0.1-12.6,0.2-18.9,0
		c-2.8-0.1-3.4,0.7-3.3,3.4c0.2,3.8,0.1,3.8,3.9,3.8c0.8,0,1.7,0.1,2.5,0c1.6-0.2,2,0.5,2,2.1C33.2,96.4,33.2,102.7,33.2,108.9z"/>
	<path class="st0" d="M85.5,39c0,3.3,0.1,6.6,0,9.9c-0.2,7.1-4.4,11.2-11.6,11.2c-7,0-11.5-4.3-11.6-11.3c-0.1-6.7-0.1-13.5,0-20.2
		c0-5.4,3.1-9.1,8.3-10.1c1.8-0.4,3.6-0.6,5.5-0.3c6.1,1,9.3,4.7,9.4,11C85.5,32.6,85.5,35.8,85.5,39z M77.3,39.1
		c0-3.4-0.1-6.8,0-10.2c0.1-2.6-1.3-3.7-3.6-3.6c-2.2,0-3.2,1.3-3.2,3.7c0.1,6.8,0.1,13.6,0,20.5c0,2.4,0.9,3.9,3.3,3.9
		c2.3,0,3.5-1.4,3.4-3.9C77.2,45.9,77.3,42.5,77.3,39.1z"/>
	<path class="st0" d="M47.1,26.6c1.7-6.6,3.5-13.1,5-19.6c0.3-1.5,0.8-2.1,2.4-2c2.3,0.1,4.6,0,7.2,0c-2,6.1-3.7,12.1-5.9,17.8
		c-3.5,9.1-5.4,18.4-4.6,28.2c0.2,2.1,0,4.2,0,6.3c0.1,1.3-0.3,1.7-1.7,1.8c-7.3,0.3-7.7,0.3-7.2-7.1C43,41.9,41.2,32.4,37.6,23
		c-2.2-5.8-3.9-11.8-5.9-18c2.7,0,5.2,0.1,7.7,0c1.5-0.1,1.6,0.9,1.8,2c1.6,6,3.3,12,4.9,18C46.2,25.5,46.2,26.2,47.1,26.6z"/>
	<path class="st0" d="M106.4,55.2c-1.7,1.2-3.1,2.7-5,3.5c-5.6,2.6-9.4,0.3-9.6-6c-0.1-4.3,0-8.5,0-12.8c0-6.2,0.1-12.3,0-18.5
		c0-1.7,0.3-2.3,2.1-2.3c6,0,6-0.1,6,6c0,7.8,0,15.6,0,23.3c0,1.5-0.7,3.7,1.9,3.9c2,0.2,4.8-2.3,4.8-4.2c0.1-4.6,0-9.3,0-13.9
		c0-4.4,0.1-8.7,0-13.1c0-1.4,0.3-1.9,1.8-2c6.1-0.2,6.1-0.2,6.1,6c0,10.5,0,21,0,31.6c0,1.8-0.4,2.6-2.3,2.3c-0.5-0.1-1.1,0-1.7,0
		C106.8,59.1,106.8,59.1,106.4,55.2z"/>
	<path class="st0" d="M85,111.7c0-3.1,0.1-6.2,0-9.3c-0.1-2.1,0.9-3,2.7-3.2c1.9-0.2,3,0.8,3.2,2.7c0.2,1.6,0.2,3.2,0.2,4.8
		c0,4.7,0,9.4,0,14.2c0,1.9,0,4-2.8,3.9c-2.4-0.1-3.3-1.4-3.2-3.9C85.2,117.8,85,114.7,85,111.7z"/>
	<path class="st0" d="M111.8,107.1c-1.3,0.1-2.8,0.4-2.7-2.4c0.2-4.1,0.8-5.4,3.2-5.4c2.3,0,3.1,1.4,3.1,5.2
		C115.5,107.1,115.5,107.1,111.8,107.1z"/>
</g>
</svg>
