<?xml version="1.0" encoding="utf-8"?>
<!-- Generator: Adobe Illustrator 23.1.0, SVG Export Plug-In . SVG Version: 6.00 Build 0)  -->
<svg version="1.1" id="Слой_1" xmlns="http://www.w3.org/2000/svg" xmlns:xlink="http://www.w3.org/1999/xlink" x="0px" y="0px"
	 viewBox="0 0 150 150" style="enable-background:new 0 0 150 150;" xml:space="preserve">
<style type="text/css">
	.st0{fill:#030303;}
	.st1{fill:#050505;}
	.st2{fill:#060606;}
	.st3{fill:#090909;}
	.st4{fill:#0C0C0C;}
</style>
<g>
	<path class="st0" d="M75.1,144.99c-14.44,0-28.88,0.01-43.32,0c-14.79-0.02-25.62-10.2-26.41-25.28
		c-0.43-8.13-0.59-16.33,0.12-24.45C6.64,82.01,17.14,71.82,30.1,71.74c29.9-0.19,59.8-0.21,89.7,0.02
		c13.43,0.1,23.91,10.39,24.8,24.2c0.53,8.12,0.53,16.33,0.03,24.45c-0.88,14.42-11.8,24.53-25.93,24.57
		C104.17,145.02,89.63,144.99,75.1,144.99z M84.99,127.22c3.14,3.16,6.28,4.01,9.64,2.55c3.51-1.52,3.58-4.96,3.62-8.22
		c0.05-3.88,0.07-7.77,0-11.65c-0.07-3.68,0.38-7.39-0.42-11.04c-0.74-3.35-2.75-5.24-5.84-5.51c-2.68-0.24-4.7,1.21-6.95,3.18
		c0-4,0-7.56,0-11.11c0-4.56-0.01-4.41-4.53-4.59c-2.33-0.1-2.69,0.78-2.67,2.9c0.08,13.73,0.04,27.47,0.04,41.2
		c0,5.18,0,5.06,5.16,5.13C84.88,130.05,85.29,129.36,84.99,127.22z M101.91,111.65c0.02,0,0.04,0,0.07,0c0,3.13-0.2,6.27,0.04,9.38
		c0.52,6.79,4.36,10.11,11.05,9.86c6.19-0.23,9.49-3.95,9.72-10.69c0.07-1.95-0.55-2.52-2.33-2.34c-1.55,0.16-3.3-0.24-4.6,0.4
		c-0.63,0.31-0.44,2.41-0.61,3.7c-0.22,1.8-1.16,2.67-2.97,2.62c-1.81-0.04-2.77-0.97-2.86-2.76c-0.12-2.55-0.12-5.11-0.23-7.67
		c-0.06-1.39,0.72-1.48,1.77-1.47c3.33,0.03,6.66-0.02,9.99,0.03c1.2,0.02,1.89-0.16,1.82-1.67c-0.12-2.84,0.06-5.69-0.09-8.53
		c-0.19-3.45-1.26-6.56-4.46-8.32c-5.67-3.12-16-1.21-16.31,9.2C101.84,106.15,101.91,108.9,101.91,111.65z M65.81,125.96
		c-0.91,3.56,0.33,4.47,2.96,4.03c0.72-0.12,1.48-0.07,2.22-0.01c1.35,0.12,1.72-0.48,1.72-1.82c-0.04-10.9-0.05-21.8,0.01-32.7
		c0.01-1.45-0.53-1.83-1.79-1.7c-0.55,0.06-1.11,0.01-1.66,0.01c-3.68,0-3.68,0-3.68,3.91c0,7.39,0.02,14.78-0.01,22.18
		c-0.01,1.84-2.44,4.22-4.19,4.06c-2.39-0.22-1.85-2.21-1.86-3.72c-0.04-7.2-0.02-14.41-0.02-21.61c0-4.88,0-4.76-4.74-4.88
		c-2.03-0.05-2.41,0.66-2.39,2.57c0.1,7.86,0.03,15.73,0.05,23.6c0.01,2.17-0.18,4.36,0.29,6.52c0.64,2.93,2.2,4.16,5.11,4.02
		C60.86,130.29,63.05,128.41,65.81,125.96z M33.22,108.91c0,5.22,0,10.43,0,15.65c0,5.45,0,5.34,5.37,5.47
		c2.06,0.05,2.62-0.46,2.6-2.64c-0.12-11.85-0.06-23.71-0.06-35.56c0-3.75,0-3.75,3.57-3.75c4.8,0,4.68,0,4.75-4.94
		c0.03-2.01-0.71-2.31-2.41-2.29c-6.29,0.08-12.59,0.2-18.87-0.04c-2.76-0.11-3.43,0.74-3.26,3.44c0.24,3.82,0.06,3.83,3.85,3.83
		c0.83,0,1.68,0.09,2.5-0.02c1.61-0.21,2.01,0.5,1.99,2.08C33.17,96.39,33.22,102.65,33.22,108.91z"/>
	<path class="st1" d="M85.46,39.05c0,3.31,0.06,6.63-0.01,9.94c-0.16,7.1-4.41,11.18-11.56,11.18c-7.02,0-11.48-4.27-11.56-11.25
		c-0.08-6.72-0.06-13.45,0-20.17c0.05-5.44,3.09-9.11,8.27-10.12c1.82-0.35,3.63-0.56,5.5-0.25c6.08,1.01,9.29,4.73,9.36,11.01
		C85.49,32.61,85.46,35.83,85.46,39.05z M77.28,39.09c0-3.41-0.07-6.83,0.02-10.24c0.07-2.6-1.28-3.66-3.55-3.64
		c-2.24,0.02-3.24,1.28-3.22,3.66c0.08,6.82,0.06,13.65,0.01,20.48c-0.02,2.41,0.92,3.92,3.34,3.87c2.31-0.05,3.46-1.43,3.41-3.88
		C77.23,45.92,77.28,42.51,77.28,39.09z"/>
	<path class="st1" d="M47.06,26.59c1.71-6.6,3.45-13.07,5.03-19.58c0.35-1.46,0.84-2.09,2.37-2c2.3,0.13,4.62,0.03,7.24,0.03
		c-1.99,6.07-3.66,12.06-5.91,17.82c-3.55,9.11-5.4,18.41-4.56,28.24c0.18,2.07-0.04,4.17,0.05,6.26c0.06,1.32-0.3,1.74-1.67,1.8
		c-7.32,0.33-7.69,0.35-7.23-7.11c0.63-10.15-1.21-19.68-4.79-29.07c-2.21-5.79-3.91-11.78-5.92-17.95c2.74,0,5.22,0.07,7.69-0.02
		c1.46-0.05,1.56,0.92,1.84,1.96c1.61,6.02,3.25,12.03,4.89,18.04C46.23,25.54,46.15,26.18,47.06,26.59z"/>
	<path class="st2" d="M106.39,55.22c-1.71,1.19-3.13,2.65-4.99,3.5c-5.61,2.56-9.39,0.28-9.57-5.97c-0.12-4.26-0.03-8.53-0.03-12.8
		c0-6.16,0.06-12.32-0.04-18.48c-0.03-1.69,0.35-2.27,2.13-2.28c5.97-0.02,5.97-0.11,5.97,5.98c0,7.77-0.03,15.55,0.03,23.32
		c0.01,1.55-0.68,3.71,1.94,3.92c1.99,0.16,4.75-2.28,4.77-4.22c0.05-4.64,0.02-9.29,0.02-13.93c0-4.36,0.05-8.72-0.03-13.08
		c-0.02-1.41,0.27-1.93,1.8-1.98c6.13-0.16,6.12-0.23,6.12,6.04c0,10.52-0.04,21.04,0.04,31.56c0.01,1.81-0.39,2.64-2.25,2.32
		c-0.54-0.09-1.11-0.01-1.66-0.01C106.8,59.12,106.8,59.12,106.39,55.22z"/>
	<path class="st3" d="M85.04,111.7c0-3.12,0.12-6.24-0.04-9.35c-0.11-2.1,0.93-3,2.65-3.22c1.87-0.24,3,0.82,3.2,2.7
		c0.17,1.59,0.15,3.2,0.16,4.81c0.02,4.72,0.04,9.45-0.02,14.17c-0.02,1.9-0.02,4.03-2.8,3.86c-2.36-0.14-3.34-1.39-3.2-3.9
		C85.17,117.76,85.04,114.73,85.04,111.7z"/>
	<path class="st4" d="M111.78,107.08c-1.29,0.1-2.83,0.39-2.67-2.42c0.24-4.08,0.84-5.44,3.24-5.42c2.33,0.02,3.14,1.36,3.14,5.2
		C115.5,107.09,115.5,107.09,111.78,107.08z"/>
</g>
</svg>
